<?xml version="1.0" encoding="UTF-8" standalone="no"?>
<svg
   viewBox="0 0 866.83002 866.84003"
   version="1.1"
   id="svg94"
   sodipodi:docname="logo.svg"
   width="866.83002"
   height="866.84003"
   inkscape:version="1.2.1 (9c6d41e410, 2022-07-14)"
   xmlns:inkscape="http://www.inkscape.org/namespaces/inkscape"
   xmlns:sodipodi="http://sodipodi.sourceforge.net/DTD/sodipodi-0.dtd"
   xmlns="http://www.w3.org/2000/svg"
   xmlns:svg="http://www.w3.org/2000/svg">
  <sodipodi:namedview
     id="namedview96"
     pagecolor="#505050"
     bordercolor="#ffffff"
     borderopacity="1"
     inkscape:showpageshadow="0"
     inkscape:pageopacity="0"
     inkscape:pagecheckerboard="1"
     inkscape:deskcolor="#505050"
     showgrid="false"
     inkscape:zoom="0.69558456"
     inkscape:cx="371.62987"
     inkscape:cy="560.6795"
     inkscape:window-width="1900"
     inkscape:window-height="1019"
     inkscape:window-x="10"
     inkscape:window-y="51"
     inkscape:window-maximized="1"
     inkscape:current-layer="a" />
  <defs
     id="defs67">
    <style
       id="style65">.d{opacity:.59;}</style>
  </defs>
  <g
     id="a"
     transform="translate(-527.17,-106.61)">
    <g
       id="g87">
      <path
         d="m 1081.04,230.26 c 4.48,-14.74 1.46,-32.31 -14.16,-37.06 -16.04,-4.88 -28.44,7.64 -33.27,23.54 -4.78,15.65 -0.5,32.4 14.38,36.92 15.17,4.61 27.95,-6.63 33.05,-23.4 z"
         id="path69" />
      <path
         d="m 1225.04,726.59 -14.18,18.45 22.22,7.46 c 5.01,1.75 9.36,3.62 13.56,5.41 l 0.16,-0.21 c -2.9,-3.62 -5.9,-7.44 -8.71,-11.51 l -13.06,-19.6 z"
         id="path71" />
      <path
         d="m 969,610.5 c 39.98,0 72.5,-32.52 72.5,-72.5 0,-39.98 -32.52,-72.5 -72.5,-72.5 -5.74,0 -11.31,0.69 -16.67,1.96 -4.92,1.16 -9.66,2.82 -14.14,4.93 -24.61,11.6 -41.69,36.64 -41.69,65.61 0,39.98 32.52,72.5 72.5,72.5 z m -0.41,-94.95 c 12.56,0 22.75,10.19 22.75,22.75 0,12.56 -10.19,22.75 -22.75,22.75 -12.56,0 -22.75,-10.19 -22.75,-22.75 0,-12.56 10.19,-22.75 22.75,-22.75 z"
         id="path73" />
      <path
         d="m 1359.93,371.32 c -21.83,-51.61 -53.08,-97.96 -92.88,-137.76 -39.8,-39.8 -86.15,-71.05 -137.76,-92.88 -53.45,-22.6 -110.21,-34.07 -168.71,-34.07 -58.5,0 -115.26,11.46 -168.71,34.07 -51.61,21.83 -97.96,53.08 -137.76,92.88 -39.8,39.8 -71.05,86.15 -92.87,137.76 -22.61,53.44 -34.07,110.21 -34.07,168.71 0,58.5 11.46,115.26 34.07,168.71 21.83,51.61 53.07,97.96 92.87,137.76 39.8,39.8 86.15,71.05 137.76,92.88 53.44,22.6 110.21,34.07 168.71,34.07 58.5,0 115.26,-11.46 168.71,-34.07 51.61,-21.83 97.96,-53.08 137.76,-92.88 39.8,-39.8 71.05,-86.15 92.88,-137.76 22.61,-53.44 34.07,-110.21 34.07,-168.71 0,-58.5 -11.46,-115.26 -34.07,-168.71 z M 960.59,964.44 c -57.29,0 -112.87,-11.22 -165.2,-33.36 -50.54,-21.38 -95.93,-51.98 -134.9,-90.95 -38.98,-38.98 -69.58,-84.36 -90.95,-134.9 -22.13,-52.33 -33.36,-107.91 -33.36,-165.2 0,-57.29 11.22,-112.87 33.36,-165.2 21.37,-50.54 51.97,-95.92 90.95,-134.9 38.97,-38.97 84.36,-69.58 134.9,-90.95 52.33,-22.13 107.91,-33.36 165.2,-33.36 57.29,0 112.87,11.22 165.2,33.36 50.54,21.38 95.93,51.98 134.9,90.95 38.97,38.97 69.57,84.36 90.95,134.9 22.13,52.33 33.36,107.91 33.36,165.2 0,57.29 -11.22,112.87 -33.36,165.2 -21.38,50.54 -51.97,95.93 -90.95,134.9 -38.97,38.97 -84.36,69.57 -134.9,90.95 -52.33,22.13 -107.91,33.36 -165.2,33.36 z"
         id="path75" />
      <path
         d="m 1245.9,254.72 c -76.21,-76.21 -177.54,-118.18 -285.31,-118.18 -107.77,0 -209.1,41.97 -285.31,118.18 -76.21,76.21 -118.18,177.54 -118.18,285.31 0,107.77 41.97,209.1 118.18,285.31 76.21,76.21 177.53,118.18 285.31,118.18 107.78,0 209.1,-41.97 285.31,-118.18 76.21,-76.21 118.18,-177.53 118.18,-285.31 0,-107.78 -41.97,-209.1 -118.18,-285.31 z m 11.11,360.2 c 10.27,0.97 19.54,2.5 31.27,4.66 l 31.74,5.85 -1.7,9.21 -75.73,-13.95 1.83,-9.93 42.82,-17 c 9.45,-3.65 19.02,-7.16 27.95,-9.42 l -0.06,-0.36 c -9.7,-1.18 -18.86,-2.73 -31.38,-5.04 l -32.38,-5.96 1.7,-9.21 75.73,13.95 -1.98,10.76 -42.74,17.21 c -9.9,3.9 -18.67,6.83 -27.15,8.97 l 0.07,0.27 z m 14.3,39.36 c -17.79,-8.02 -33.13,-2.1 -40.54,14.33 -2.67,5.93 -3.65,10.33 -3.54,12.9 l 20.91,9.43 6.41,-14.21 7.25,3.27 -10.42,23.12 -33.69,-15.19 c 0.3,-4.76 1.61,-13.87 5.88,-23.32 4.8,-10.64 11.45,-18.21 21.12,-22.07 8.55,-3.42 19.55,-2.95 30.47,1.99 20.92,9.47 29.76,30.78 19.15,54.31 -3.66,8.11 -8.34,13.74 -11.14,16.11 l -6.38,-5.6 c 3.39,-2.97 6.8,-7.07 10,-14.15 7.68,-17.03 2.11,-32.98 -15.47,-40.91 z m -298.54,220.41 -29.85,0.48 -0.13,-8.23 29.85,-0.48 -0.45,-27.81 -33.39,0.54 -0.13,-8.28 43.38,-0.7 1.24,77 -41.62,0.67 -0.13,-8.29 31.63,-0.51 -0.39,-24.39 z m -43.07,-44.41 -15.75,75.38 -10.71,-2.24 -16.19,-43.14 c -3.66,-9.99 -6.39,-18.83 -8.32,-27.36 l -0.27,0.06 c -1.22,10.25 -2.96,19.48 -5.4,31.16 l -6.6,31.6 -9.17,-1.92 15.75,-75.38 9.89,2.07 15.98,43.21 c 3.43,9.53 6.7,19.19 8.75,28.17 l 0.36,-0.05 c 1.41,-9.67 3.18,-18.79 5.78,-31.25 l 6.73,-32.24 9.17,1.92 z m -89.04,49.34 -3.42,7.67 -52.08,-23.24 3.42,-7.67 21.52,9.61 27.96,-62.65 9.13,4.08 -27.96,62.65 21.42,9.56 z M 769.08,798.6 c 0,6.42 -5.21,11.63 -11.63,11.63 -6.42,0 -11.63,-5.21 -11.63,-11.63 0,-6.42 5.21,-11.63 11.63,-11.63 6.42,0 11.63,5.21 11.63,11.63 z M 659.19,689.4 c -5.07,0.08 -9.14,-0.13 -14.78,-0.47 l -20.87,-1.27 -5.15,-10.31 44.07,4.25 24.57,-39.16 5.17,10.35 -10.81,16.44 c -4.03,6.5 -6.74,10.59 -9.64,14.71 l 0.11,0.22 c 4.96,-0.08 9.65,0.09 17.35,0.61 l 19.31,0.72 5.12,10.26 -45.43,-3.67 -23.87,37.26 -5.14,-10.29 11.61,-17.24 c 3.16,-4.75 5.69,-8.4 8.48,-12.19 l -0.11,-0.23 z m -2.51,-292.1 13.38,-26.69 7.36,3.69 -13.38,26.69 24.87,12.46 14.96,-29.85 7.41,3.71 -19.44,38.79 -68.84,-34.5 18.65,-37.22 7.41,3.71 -14.17,28.28 21.8,10.93 z m 54.45,-83.63 -25.18,-20.19 5.86,-7.31 60.07,48.18 -6.32,7.88 -45.76,-5.33 c -10.05,-1.26 -20.14,-2.72 -29.08,-4.96 l -0.12,0.34 c 7.98,5.64 15.31,11.34 25.24,19.31 l 25.69,20.6 -5.86,7.31 -60.07,-48.18 6.84,-8.53 45.79,5.11 c 10.57,1.26 19.68,2.84 28.16,4.97 l 0.07,-0.27 c -8.58,-5.73 -16.02,-11.46 -25.33,-18.93 z m 368.36,-40.12 -5.21,7.05 c -9.17,-5.56 -17.97,-11.54 -25.62,-17.08 -1.39,-1.02 -2.69,-1.94 -4.15,-2.44 -17.31,-5.98 -28.28,-23.4 -21.06,-47.14 7.18,-23.6 26.17,-34.42 46.05,-28.38 20,6.08 28.34,25.53 21.72,47.31 -5.76,18.94 -18.19,28.35 -31.75,28.97 l -0.13,0.43 c 6.73,4.05 14.21,8.27 20.14,11.28 z m 35.16,9.67 c 9.71,5.85 19.94,3.2 28.67,-11.29 l 23.55,-39.09 8.56,5.16 -23.19,38.49 c -12.22,20.28 -27.86,22.13 -42.17,13.51 -13.46,-8.11 -19,-21.92 -6.66,-42.42 l 23.41,-38.86 8.56,5.16 -23.55,39.09 c -8.86,14.71 -6.1,24.89 2.8,30.25 z m 95.52,-5.74 6.25,-5.61 38.09,42.44 -6.25,5.61 -15.75,-17.54 -51.05,45.83 -6.68,-7.44 51.05,-45.83 -15.67,-17.46 z m 37.23,94.68 c 5.44,-0.73 11.12,-1.02 17.67,-1.41 l 23.92,-1.16 5.71,9.72 -51.17,0.16 -28.28,16.6 -5.06,-8.62 28.15,-16.53 25.89,-43.52 5.77,9.82 -12.87,20.1 c -3.55,5.48 -6.38,9.88 -9.83,14.65 l 0.12,0.2 z m 41.34,71.86 c 0,6.42 -5.21,11.63 -11.63,11.63 -6.42,0 -11.63,-5.21 -11.63,-11.63 0,-6.42 5.21,-11.63 11.63,-11.63 6.42,0 11.63,5.21 11.63,11.63 z m -163.64,388.37 -26.46,13.84 -3.82,-7.29 26.46,-13.84 -12.9,-24.65 -29.59,15.48 -3.84,-7.34 38.45,-20.12 35.71,68.24 -36.89,19.3 -3.84,-7.34 28.03,-14.67 z m -58.81,15.07 -5.94,-32.58 9.17,-2.27 13.27,76.04 -12.33,3.05 -21.67,-33.04 c -5.34,-8.39 -9.88,-16 -13.75,-23.33 l -0.29,0.07 c -0.09,8.06 -0.67,16.94 -1.69,27.13 l -4.4,39.49 -12.34,3.05 -23.11,-73.61 9.49,-2.34 9.91,32.38 c 3.15,10.24 6.94,22.69 9.16,31.95 l 0.3,-0.08 c 0.43,-9.31 1.21,-19.5 2.4,-30.66 l 4.24,-39.53 7.29,-1.8 20.98,32.59 c 6.17,9.68 11.44,18.56 15.73,26.89 l 0.26,-0.06 c -2.04,-9.38 -4.63,-21.95 -6.68,-33.34 z M 742.67,291.79 c 11.68,14.79 27.66,17.51 42.3,5.95 4.8,-3.79 8.87,-8.57 10.85,-12.59 l 6.48,4.99 c -1.7,3.65 -6.33,9.68 -13.7,15.5 -17.02,13.44 -38.3,12.76 -53.97,-7.09 -14.98,-18.97 -12.25,-41.81 6.51,-56.62 7.47,-5.9 13.54,-8.12 16.44,-8.67 l 3.1,7.87 c -4.04,0.92 -9.1,3.15 -14.12,7.11 -14.19,11.21 -16.42,27.68 -3.88,43.55 z m 57.87,-47.69 26.6,-13.56 3.74,7.33 -26.6,13.56 12.63,24.78 29.75,-15.16 3.76,7.38 -38.66,19.7 -34.97,-68.61 37.09,-18.9 3.76,7.38 -28.18,14.36 11.07,21.73 z M 695.56,541.03 c 0,-71.59 27.88,-138.9 78.5,-189.52 50.62,-50.62 117.93,-78.5 189.53,-78.5 0.49,0 0.97,0.02 1.45,0.02 0.49,0 0.97,-0.02 1.46,-0.02 16.06,0 31.91,1.43 47.4,4.19 15.39,3.07 30.41,7.48 44.92,13.16 34.97,13.27 67.05,33.91 94.29,61.15 50.62,50.62 78.5,117.93 78.5,189.52 0,54.98 -16.46,107.43 -47.02,151.74 -9.23,13.39 -19.74,26.04 -31.48,37.78 -50.62,50.62 -117.93,78.5 -189.52,78.5 -36.11,0 -71.12,-7.1 -103.46,-20.63 -17.59,-7.36 -34.39,-16.62 -50.14,-27.67 -12.7,-8.92 -24.72,-19 -35.93,-30.2 -47.75,-47.75 -75.25,-110.34 -78.22,-177.36 -0.18,-4.04 -0.28,-8.09 -0.28,-12.16 z m 458.16,-220.81 -7.62,-6.48 49.88,-58.67 7.62,6.48 z m -142.22,-138.47 -31.54,-2.44 -1.88,24.32 29.77,2.3 -0.63,8.21 -29.77,-2.3 -2.15,27.74 33.29,2.58 -0.64,8.26 -43.26,-3.35 5.94,-76.78 41.51,3.21 -0.64,8.26 z m -112.4,38.5 c -6.42,0 -11.63,-5.21 -11.63,-11.63 0,-6.42 5.21,-11.63 11.63,-11.63 6.42,0 11.63,5.21 11.63,11.63 0,6.42 -5.21,11.63 -11.63,11.63 z m -227.84,242.03 9.29,-31.58 8.05,2.37 -12.12,41.18 -73.87,-21.74 2.82,-9.59 65.82,19.37 z m -8.85,51.25 3.68,-32.72 8.34,0.94 -4.79,42.65 -76.53,-8.6 1.12,-9.94 68.19,7.66 z m -61.97,26.5 2,31.57 24.34,-1.54 -1.89,-29.8 8.22,-0.52 1.89,29.8 27.76,-1.76 -2.11,-33.33 8.27,-0.52 2.75,43.3 -76.86,4.88 -2.63,-41.55 8.27,-0.52 z m -0.67,65.19 8.45,0.28 c -0.75,4.07 -0.72,9.6 0.93,15.79 4.66,17.47 18.91,26.04 38.45,20.83 18.2,-4.86 27.04,-18.45 22.23,-36.48 -1.58,-5.91 -4.35,-11.54 -7.26,-14.95 l 7.15,-3.98 c 2.67,3.01 6.38,9.65 8.79,18.72 5.59,20.96 -3.47,40.22 -27.9,46.74 -23.35,6.23 -43.24,-5.33 -49.4,-28.42 -2.45,-9.19 -2.09,-15.64 -1.44,-18.53 z m 62.94,136.56 19.36,25.02 19.29,-14.92 -18.27,-23.61 6.51,-5.04 18.27,23.61 22,-17.02 -20.43,-26.41 6.55,-5.07 26.55,34.32 -60.9,47.12 -25.47,-32.92 6.55,-5.07 z m 526.89,87.58 c -6.86,5.67 -13.54,8.66 -17.09,9.56 l -3.26,-7.84 c 4.35,-1.17 9.22,-3.35 15.21,-8.3 14.4,-11.91 16.42,-28.68 4.13,-43.54 -12.44,-15.04 -28.83,-16.48 -42.71,-4.99 -5.01,4.15 -7.83,7.67 -8.86,10.02 l 14.62,17.68 12.01,-9.93 5.07,6.13 -19.54,16.17 -23.56,-28.48 c 2.36,-4.14 7.55,-11.74 15.55,-18.35 9,-7.44 18.3,-11.31 28.68,-10.51 9.18,0.69 18.85,5.96 26.48,15.21 14.62,17.72 13.16,40.75 -6.72,57.19 z m -16.83,-87.23 6.48,-8.43 24.22,8.21 16.63,-21.65 -14.35,-21.06 6.28,-8.18 45.11,67.69 -7.29,9.48 -77.09,-26.06 z m 149.1,-191.07 -0.88,-31.62 -24.38,0.68 0.83,29.84 -8.23,0.23 -0.83,-29.84 -27.81,0.78 0.93,33.38 -8.28,0.23 -1.21,-43.37 76.98,-2.15 1.16,41.61 z"
         id="path77" />
      <path
         d="m 885.14,348.07 c 0.94,0.35 1.93,0.62 2.95,0.78 0.78,0.12 1.58,0.21 2.39,0.21 0.2,0 0.39,-0.02 0.59,-0.03 7.94,-0.3 14.31,-6.68 14.31,-14.5 0,-6.79 -4.8,-12.49 -11.27,-14.07 -0.96,-0.23 -1.95,-0.38 -2.96,-0.42 -0.22,0 -0.44,-0.03 -0.67,-0.03 -0.81,0 -1.6,0.08 -2.37,0.2 -7.09,1.11 -12.52,7.1 -12.52,14.33 0,6.17 3.97,11.44 9.55,13.55 z"
         id="path79" />
      <path
         d="m 776.86,684.51 c 4.78,-0.01 9.71,-0.26 14.88,-0.76 -0.21,-0.31 -0.4,-0.62 -0.58,-0.94 -0.19,-0.32 -0.36,-0.64 -0.53,-0.96 -0.2,-0.39 -0.4,-0.77 -0.57,-1.17 -0.73,-1.7 -1.2,-3.54 -1.37,-5.45 -0.03,-0.33 -0.04,-0.67 -0.05,-1 0,-0.23 -0.04,-0.45 -0.04,-0.68 0,-0.11 0.01,-0.21 0.02,-0.32 0,-0.39 0.03,-0.77 0.06,-1.16 -5.49,0.54 -11.01,0.82 -16.56,0.69 -5.95,-0.13 -11.83,-0.69 -17.48,-2.43 -0.22,-0.09 -0.44,-0.17 -0.66,-0.26 -6.19,-2.57 -9.69,-6.22 -11.01,-11.49 -1,-3.98 -0.72,-8.19 0.9,-13.65 2.88,-9.72 8.3,-18.19 12.71,-24.48 8.51,-12.16 18.87,-23.88 33.6,-38.01 12.51,-12 26.5,-23.94 42.77,-36.5 0.15,-0.12 0.31,-0.23 0.47,-0.35 l 2.46,1.81 c 2.22,1.64 4.43,3.27 6.65,4.88 1.36,0.99 3.38,2.49 5.92,4.37 7.26,5.39 18.56,13.77 31.17,22.75 1,0.71 2.01,1.43 3.02,2.14 1.03,0.73 2.06,1.46 3.1,2.19 0.57,20.02 1.33,40.32 2.24,60.9 -0.97,0.36 -1.97,0.74 -3,1.12 -0.95,0.36 -1.92,0.72 -2.91,1.09 -9.46,3.55 -20.34,7.63 -26.64,9.76 -10.16,3.44 -20.45,6.46 -30.87,9 0.2,0.42 0.39,0.84 0.56,1.27 0.12,0.31 0.25,0.63 0.35,0.95 0.1,0.31 0.19,0.64 0.28,0.96 0.41,1.52 0.65,3.11 0.65,4.76 0,0.19 -0.02,0.36 -0.03,0.55 -0.02,0.51 -0.04,1.02 -0.1,1.52 -0.04,0.35 -0.1,0.7 -0.16,1.05 -0.06,0.37 -0.14,0.74 -0.22,1.11 17.59,-4.18 35.79,-9.87 56.78,-17.72 0.66,-0.25 1.32,-0.49 1.99,-0.74 0.31,-0.12 0.62,-0.24 0.92,-0.35 0.99,-0.38 1.99,-0.76 2.99,-1.15 2.01,43 4.6,87.19 7.42,132.59 6.77,0.97 11.87,1.92 15.18,2.85 0.68,-0.51 2.19,-1.8 5.02,-4.97 0.12,-0.13 0.2,-0.22 0.22,-0.24 1,-1.04 2,-2.06 3,-3.09 2.56,-2.63 5.21,-5.34 7.69,-8.09 6.71,-7.45 11.64,-15.03 15.07,-23.18 0.06,-0.15 0.13,-0.47 0.19,-0.75 0.09,-0.4 0.17,-0.8 0.29,-1.19 0.15,-0.48 0.34,-0.9 0.5,-1.24 0.06,-0.13 0.13,-0.29 0.18,-0.4 -0.06,-1.78 -0.2,-3.61 -0.33,-5.38 -0.33,-4.43 -0.68,-9.01 0,-13.71 0.79,-5.57 1.85,-11.44 5.29,-16.63 2.33,-3.52 5.47,-7.08 11.01,-6.8 l 1.34,0.07 c 5.58,0.28 11.36,0.58 17.01,0.67 3.33,0.06 7.25,0.04 11.04,-0.5 3.65,-0.52 6.55,0.16 8.86,2.07 1.52,1.26 2.93,2.94 4.32,5.15 2.61,4.15 4.19,8.93 4.56,13.82 0.33,4.26 0.31,8.57 0.3,12.73 0,1 0,2 0,3 0,1 -0.11,1.92 -0.22,2.82 -0.11,0.91 -0.21,1.77 -0.16,2.49 0.09,1.16 0.62,2.5 1.07,3.54 5.08,11.61 12.85,22.13 24.48,33.12 0.21,0.19 1.08,0.75 1.59,1.09 1.37,0.89 2.22,1.45 2.76,2.14 10.23,-2.97 20.24,-6.57 29.99,-10.78 0.12,-0.49 0.22,-1.01 0.33,-1.54 0.09,-0.44 0.18,-0.88 0.28,-1.32 1.48,-6.62 2.44,-13.64 2.93,-21.45 0.43,-6.89 0.18,-13.31 -0.77,-19.64 -0.16,-1.07 -0.44,-2.16 -0.73,-3.32 -0.12,-0.46 -0.23,-0.93 -0.34,-1.39 -0.09,-0.37 -0.16,-0.76 -0.22,-1.16 -0.05,-0.31 -0.13,-0.77 -0.2,-0.96 -0.81,-1.12 -1.72,-2.18 -2.68,-3.3 -0.72,-0.84 -1.47,-1.72 -2.19,-2.63 -6.71,-8.56 -10.27,-16.48 -11.2,-24.95 -0.49,-4.46 0.79,-8.19 3.6,-10.49 1.52,-1.25 3.13,-2.31 4.68,-3.34 1.34,-0.88 2.6,-1.72 3.78,-2.65 5.42,-4.25 10.88,-8.69 16.15,-12.97 l 2.88,-2.34 c 1.79,-1.45 4.29,-3.04 7.81,-2.49 6.43,1.01 11.08,4.81 14.79,8.39 4.69,4.54 8.79,10.32 12.91,18.2 0.22,0.3 1.36,1.28 1.91,1.75 0.44,0.38 0.79,0.68 1.07,0.94 0.4,0.16 0.87,0.35 1.34,0.57 1.09,0.5 2.17,1.02 3.25,1.54 2.19,1.05 4.26,2.05 6.4,2.92 5.95,2.44 12.5,4.15 21.24,5.55 3.79,0.61 7.72,0.98 11.52,1.35 6.91,-8.48 13.24,-17.34 18.96,-26.53 -0.03,-0.03 -0.05,-0.06 -0.09,-0.1 -0.67,-0.7 -1.15,-1.66 -1.44,-2.84 -0.14,-0.58 -0.16,-1.12 -0.18,-1.51 0,-0.09 0,-0.19 -0.01,-0.28 -2.97,-7.13 -7.13,-16.32 -13.08,-24.48 -2.22,-3.05 -4.81,-5.97 -7.32,-8.8 -0.82,-0.92 -1.64,-1.84 -2.44,-2.77 -0.42,-0.41 -2.44,-1.9 -3.09,-2.23 -1.07,-0.32 -2.2,-0.56 -3.39,-0.81 -1.14,-0.24 -2.32,-0.49 -3.51,-0.83 -7.34,-2.1 -16.62,-5.57 -23.29,-13.86 -1.83,-2.27 -5.23,-6.5 -2.87,-12.32 3.82,-9.44 6.88,-19.05 9.08,-28.57 0.1,-0.43 0.18,-0.86 0.27,-1.3 0.42,-2.13 0.93,-4.77 3.06,-6.93 3.98,-4.04 8.94,-4.81 12.81,-5.02 6.99,-0.39 13.38,1.75 19.55,3.82 1.45,0.49 2.72,1.2 3.94,1.89 2.39,1.35 3.84,2.09 5.63,1.47 1.3,-0.45 2.56,-0.37 3.56,-0.31 0.48,0.03 0.98,0.06 1.26,0 8.85,-1.59 17.38,-4.54 25.35,-8.75 0.98,-0.52 1.98,-1 2.98,-1.49 3.19,-1.55 6.2,-3.01 8.4,-5.53 0.82,-0.94 1.87,-1.14 2.42,-1.21 0.15,-0.07 0.29,-0.13 0.43,-0.19 0.03,-0.58 0.07,-1.15 0.11,-1.73 0.08,-1.13 0.16,-2.2 0.15,-3.24 -0.04,-5.7 -0.11,-11.4 -0.17,-17.1 -0.04,-3.64 -0.09,-7.28 -0.12,-10.92 -0.91,-0.19 -1.82,-0.64 -2.78,-1.36 -0.5,-0.37 -0.87,-0.79 -1.14,-1.09 -0.09,-0.1 -0.18,-0.21 -0.28,-0.3 -0.92,-0.63 -2.02,-1.31 -3.32,-2.05 -8.88,-5.04 -15.98,-8.16 -23.01,-10.12 -4.07,-1.13 -8.68,-2.41 -13.36,-2.43 -1.67,0.02 -3.05,0.11 -4.46,0.7 l -1.49,0.63 c -3.32,1.41 -6.76,2.87 -10.31,3.97 -4.62,1.43 -11.62,3.08 -18.95,0.91 -3.93,-1.16 -8.61,-3.29 -9.94,-9.48 -2.28,-10.61 -5.48,-21.03 -9.5,-30.97 -1.1,-2.7 -1.29,-4.82 -0.6,-6.47 1.15,-2.76 2.64,-5.9 4.92,-8.29 4.79,-5.02 10.97,-8.64 18.89,-11.07 3.31,-1.02 11.08,-4.13 13.07,-4.99 0.64,-0.69 1.29,-1.38 1.94,-2.06 1.8,-1.9 3.5,-3.69 4.89,-5.67 3.76,-5.36 7.12,-10.67 10,-15.77 1.72,-3.06 3.12,-6.31 4.59,-9.74 0.46,-1.07 0.92,-2.14 1.38,-3.2 0.05,-0.12 0.12,-0.36 0.2,-0.63 -6.54,-10.28 -13.85,-20.14 -21.88,-29.52 -3.11,0.41 -6.13,0.84 -8.99,1.29 -11.16,1.74 -20.73,4.9 -29.24,9.67 -2.09,1.17 -2.98,1.73 -3.35,1.98 -1.3,2.1 -2.58,4.24 -3.67,6.08 -3.71,6.24 -9.06,14.04 -17.55,19.05 -2.63,1.55 -6.59,3.89 -11.15,2.4 -2.46,-0.8 -4.53,-2.51 -6.24,-4.07 -6.96,-6.37 -14.75,-12.25 -23.17,-17.46 -4.33,-2.68 -6.52,-7.44 -5.72,-12.43 0.68,-4.23 1.92,-8.54 3.67,-12.8 2.55,-6.21 6.6,-11.33 10.22,-15.51 1.33,-1.54 2.2,-2.82 2.76,-4.03 0.38,-0.84 0.54,-2.03 0.7,-3.28 l 0.11,-0.8 c 1.15,-8.15 1.38,-16.37 0.68,-24.41 -0.22,-2.58 -0.57,-5.11 -0.85,-7.04 -0.12,-0.84 -0.29,-1.68 -0.47,-2.58 -0.28,-1.39 -0.56,-2.82 -0.68,-4.32 -1.66,-1.12 -5.92,-3.15 -10.99,-5.39 -8.37,-3.22 -16.92,-5.98 -25.61,-8.31 -0.18,0.18 -0.35,0.37 -0.53,0.55 -2.5,2.61 -5.09,5.3 -7.54,8.02 -5.8,6.42 -10.27,12.92 -13.67,19.87 -0.76,1.55 -1.41,3.3 -2.04,5 l -0.2,0.55 c -0.56,1.51 -0.87,2.4 -0.75,3.26 0.95,6.53 1.05,12.62 0.3,18.6 -0.89,7.17 -2.83,12.6 -6.11,17.09 -2.71,3.71 -5.99,5.49 -9.77,5.35 -1.84,-0.08 -3.68,-0.17 -5.51,-0.26 -4.1,-0.2 -8.34,-0.41 -12.49,-0.47 -4.17,-0.06 -8.24,-0.07 -12.12,0.51 -5.53,0.82 -8.81,-2.2 -10.79,-4.54 -2.83,-3.34 -4.7,-7.5 -5.88,-13.08 -1.48,-7 -1.78,-12.78 -0.95,-18.2 0.72,-4.67 0.11,-8.82 -1.86,-12.71 -5.03,-9.93 -11.75,-18.96 -20.56,-27.61 -0.49,-0.48 -0.96,-0.99 -1.43,-1.5 -1.22,-1.33 -2.27,-2.47 -3.55,-2.88 -1.15,-0.37 -1.83,-0.94 -2.24,-1.51 -1.72,0.34 -3.43,0.7 -5.13,1.07 -1.27,0.62 -2.56,1.3 -3.88,2 -2.14,1.14 -4.34,2.31 -6.6,3.25 -1.12,7.7 -2.14,15.47 -3.1,23.29 8.44,1.85 14.77,9.24 14.77,18.07 0,10.14 -8.35,18.39 -18.67,18.52 -1.96,21.52 -3.42,43.45 -4.42,65.81 -0.97,-0.37 -1.94,-0.74 -2.91,-1.1 -1,-0.38 -2,-0.75 -2.99,-1.12 -23.73,-8.8 -44.4,-14.92 -64.21,-19.05 -14.72,-3.06 -26.95,-4.52 -38.49,-4.59 -10.11,-0.06 -18.16,1.04 -25.24,3.47 -1.93,0.66 -3.72,1.42 -5.38,2.26 -0.68,0.34 -1.34,0.69 -1.97,1.07 -4.14,2.06 -7.76,4.83 -10.53,8.75 -4.25,6.01 -5.16,12.67 -4.24,19.61 0.07,0.5 0.14,1 0.22,1.5 1.47,8.75 5.28,16.62 9.83,24.18 4.71,7.82 10.15,15.08 16.02,22.03 0.12,-0.19 0.23,-0.39 0.36,-0.57 0.2,-0.29 0.41,-0.56 0.63,-0.84 0.2,-0.27 0.4,-0.54 0.62,-0.79 1.34,-1.57 2.95,-2.91 4.75,-3.98 0.19,-0.11 0.38,-0.24 0.58,-0.34 0.3,-0.17 0.62,-0.31 0.93,-0.46 0.31,-0.15 0.61,-0.3 0.93,-0.43 -6.38,-7.75 -11.27,-14.78 -15.29,-21.96 -2.95,-5.26 -6.09,-11.59 -7.07,-18.62 -0.39,-2.84 -0.39,-5.66 0.02,-8.13 0.95,-5.72 4.6,-9.68 11.48,-12.45 7.13,-2.87 14.78,-3.36 20.65,-3.47 10.43,-0.2 21.64,0.95 35.26,3.6 21.11,4.1 43.33,10.67 69.67,20.58 1,0.37 1.98,0.74 2.99,1.13 l 0.08,0.03 c 0.33,0.13 1.32,0.54 2.84,1.18 -0.77,20.29 -1.18,40.91 -1.3,61.87 -0.92,0.71 -1.92,1.48 -3,2.3 -0.96,0.73 -1.97,1.5 -3.03,2.31 -13.68,10.39 -35.13,26.39 -46.02,34.49 -1.11,-0.88 -2.22,-1.77 -3.33,-2.65 -3.41,-2.71 -6.93,-5.51 -10.35,-8.31 -11.18,-9.16 -20.89,-17.73 -29.63,-26.18 -0.16,0.3 -0.34,0.58 -0.52,0.87 -0.18,0.29 -0.35,0.59 -0.55,0.88 -0.05,0.07 -0.11,0.13 -0.16,0.2 -1.28,1.79 -2.87,3.35 -4.7,4.6 -0.28,0.19 -0.58,0.37 -0.87,0.55 -0.3,0.18 -0.59,0.37 -0.89,0.53 -0.07,0.04 -0.15,0.07 -0.23,0.11 6.03,5.71 12.22,11.24 18.55,16.62 6.09,5.27 12.6,10.65 19.63,16.24 1.34,1.07 2.69,2.13 4.05,3.2 l 0.04,0.03 c -0.35,0.28 -0.65,0.53 -0.93,0.76 -7.33,5.92 -14.77,11.71 -21.97,17.78 -15.93,13.43 -31.04,27.68 -44.44,43.59 -7.86,9.33 -15.05,19.11 -20.35,30.1 -3.07,6.37 -5.4,12.96 -5.79,20.08 -0.06,1.02 -0.06,2.03 -0.03,3.03 0.19,5.35 1.72,10.3 5.13,14.68 0.69,1.16 1.48,2.28 2.38,3.35 1.39,1.66 2.98,3.15 4.77,4.49 2.86,2.13 6.24,3.85 10.22,5.21 6.89,2.34 14.54,3.44 24.06,3.44 h 0.25 z m 169,-228.8 c 0.49,-0.14 0.97,-0.29 1.46,-0.41 3.59,-0.94 7.28,-1.64 11.04,-2.11 0.59,-0.07 1.18,-0.16 1.77,-0.23 0.66,-0.07 1.32,-0.11 1.98,-0.16 2.28,-0.18 4.57,-0.3 6.89,-0.3 47.14,0 85.5,38.35 85.5,85.5 0,0.46 -0.03,0.91 -0.03,1.36 -0.73,46.52 -38.78,84.14 -85.47,84.14 -1.47,0 -2.92,-0.04 -4.37,-0.11 -1.12,-0.06 -2.24,-0.15 -3.35,-0.25 -4.05,-0.36 -8.02,-1.02 -11.88,-1.93 -0.52,-0.12 -1.04,-0.23 -1.55,-0.36 -0.48,-0.12 -0.95,-0.27 -1.43,-0.4 -13.24,-3.63 -25.21,-10.36 -35.06,-19.37 -1.27,-1.16 -2.49,-2.37 -3.69,-3.6 -0.97,-1 -1.91,-2.02 -2.83,-3.06 -5.22,-5.93 -9.63,-12.57 -13.07,-19.77 -0.38,-0.8 -0.74,-1.6 -1.09,-2.41 -0.42,-0.95 -0.81,-1.92 -1.2,-2.89 -1.96,-4.96 -3.47,-10.14 -4.48,-15.5 0.09,4.91 0.2,9.84 0.32,14.79 -0.94,-0.62 -1.98,-1.3 -3.08,-2.04 -0.96,-0.64 -1.96,-1.31 -3.01,-2.02 -12.65,-8.51 -31.41,-21.6 -36.82,-25.84 11.42,-8.51 23.54,-17 36.12,-25.31 1,-0.66 2,-1.32 3,-1.97 0.99,-0.65 1.99,-1.3 2.99,-1.95 0.01,4.96 0.04,9.93 0.08,14.93 0.37,-2.32 0.84,-4.61 1.4,-6.86 0.25,-1 0.52,-2 0.8,-2.98 0.26,-0.92 0.53,-1.83 0.82,-2.73 1.2,-3.73 2.64,-7.36 4.32,-10.85 0.45,-0.94 0.94,-1.86 1.43,-2.78 1.63,-3.08 3.43,-6.05 5.41,-8.89 0.55,-0.78 1.09,-1.57 1.66,-2.34 0.64,-0.85 1.3,-1.68 1.96,-2.51 10.7,-13.29 25.28,-23.33 42.01,-28.36 0.48,-0.15 0.97,-0.28 1.46,-0.42 z"
         id="path81" />
      <path
         d="m 778.19,498.94 c 0.09,-0.04 0.18,-0.08 0.27,-0.12 0.34,-0.14 0.66,-0.3 0.99,-0.46 0.3,-0.16 0.59,-0.33 0.88,-0.51 1.9,-1.15 3.51,-2.7 4.71,-4.53 0.05,-0.08 0.11,-0.17 0.16,-0.25 0.19,-0.3 0.37,-0.6 0.53,-0.91 0.16,-0.3 0.32,-0.61 0.46,-0.92 0.77,-1.75 1.2,-3.68 1.2,-5.71 0,-8.01 -6.68,-14.53 -14.9,-14.53 -1.59,0 -3.12,0.25 -4.56,0.7 -0.34,0.11 -0.67,0.23 -1,0.36 -0.33,0.13 -0.64,0.27 -0.96,0.42 -0.19,0.09 -0.39,0.17 -0.58,0.27 -1.88,1 -3.49,2.38 -4.78,4.03 -0.21,0.27 -0.41,0.54 -0.6,0.82 -0.2,0.29 -0.39,0.59 -0.56,0.9 -0.1,0.18 -0.19,0.37 -0.29,0.55 -1,1.95 -1.58,4.14 -1.58,6.46 0,8.01 6.68,14.53 14.9,14.53 2.02,0 3.95,-0.4 5.71,-1.11 z"
         id="path83" />
      <path
         d="m 821.53,668.74 c -0.11,-0.32 -0.23,-0.64 -0.36,-0.94 -0.19,-0.43 -0.4,-0.85 -0.63,-1.26 C 818,662.05 813.1,659 807.49,659 c -7.54,0 -13.78,5.5 -14.75,12.61 -0.05,0.4 -0.09,0.8 -0.11,1.21 -0.01,0.24 -0.04,0.47 -0.04,0.71 0,0.1 0.01,0.2 0.02,0.31 0,0.33 0.02,0.67 0.05,1 0.18,1.92 0.74,3.73 1.61,5.36 0.22,0.41 0.46,0.81 0.71,1.2 0.21,0.32 0.44,0.63 0.68,0.93 0.25,0.31 0.5,0.61 0.77,0.91 2.73,2.96 6.67,4.83 11.06,4.83 6.31,0 11.7,-3.85 13.87,-9.27 0.15,-0.37 0.28,-0.73 0.4,-1.11 0.11,-0.36 0.21,-0.72 0.29,-1.09 0.11,-0.51 0.2,-1.02 0.26,-1.55 0.05,-0.5 0.08,-1 0.08,-1.51 0,-1.33 -0.2,-2.61 -0.54,-3.83 -0.09,-0.32 -0.19,-0.64 -0.31,-0.96 z"
         id="path85" />
    </g>
  </g>
  <g
     id="b"
     transform="translate(-527.17,-106.61)" />
  <g
     id="c"
     transform="translate(-527.17,-106.61)" />
</svg>
